<svg width="108" height="36" viewBox="0 0 108 36" fill="none" xmlns="http://www.w3.org/2000/svg">
<g clip-path="url(#clip0_99188_14983)">
<path d="M96.106 6.52013H88.9707L84.495 18.0485C82.0752 24.3219 84.212 28.3544 88.2836 28.3544C91.8324 28.3544 94.2898 25.9502 95.8635 22.6093L95.8231 26.846L100.299 26.3559L108 6.51741H100.865L96.3485 18.1683C95.4216 20.5318 94.2521 21.9966 92.6003 21.9966C90.9485 21.9966 90.6252 20.5699 91.5925 18.0867L96.1087 6.51741M58.0475 31.1671L67.643 6.52013H47.808L37.2856 33.5713L44.7443 32.7164L52.6448 12.4286H58.2092L50.5889 32.0248L58.0475 31.1698V31.1671ZM63.6523 20.1669C61.8388 25.5036 64.3367 30.3502 70.3834 30.3502C79.0115 30.3502 84.1716 19.3092 84.1716 13.1584C84.1716 8.55408 81.671 5.78497 76.7534 5.78497C71.4316 5.78497 68.2061 9.28924 66.0289 14.5851H72.884C73.8513 12.4668 74.8591 11.2034 76.1094 11.2034C77.1576 11.2034 77.5214 12.2626 77.5214 13.5259C77.5214 14.0133 77.4405 14.5851 77.3193 15.2359H73.1669L71.3534 19.881H75.8291C74.6597 22.5711 72.9675 24.9318 71.2726 24.9318C69.7421 24.9318 69.54 22.6909 70.4669 20.1669H63.655H63.6523ZM104.05 5.25675L105.542 1.42847H95.5024L94.0096 5.25675H104.047H104.05Z" fill="white"/>
</g>
<g clip-path="url(#clip1_99188_14983)">
<path fill-rule="evenodd" clip-rule="evenodd" d="M36 0H0V36H36V0ZM24.2973 28.818H20.5367V10.1395H18.8584C15.7816 10.1395 14.1655 11.6934 14.1655 13.9933C14.1655 16.6039 15.2843 17.816 17.5842 19.37L19.48 20.6442L14.0101 28.818H9.93873L14.8492 21.5144C12.021 19.4943 10.436 17.5363 10.436 14.2108C10.436 10.0462 13.3264 7.21802 18.8274 7.21802H24.2973V28.818Z" fill="white"/>
</g>
<defs>
<clipPath id="clip0_99188_14983">
<rect width="70.7143" height="32.1429" fill="#999999" transform="translate(37.2856 1.42847)"/>
</clipPath>
<clipPath id="clip1_99188_14983">
<rect width="36" height="36" rx="18" fill="#999999"/>
</clipPath>
</defs>
</svg>
