<svg width="108" height="36" viewBox="0 0 108 36" fill="none" xmlns="http://www.w3.org/2000/svg">
<g clip-path="url(#clip0_99188_14818)">
<path d="M96.106 6.52013H88.9707L84.495 18.0485C82.0752 24.3219 84.212 28.3544 88.2836 28.3544C91.8324 28.3544 94.2898 25.9502 95.8635 22.6093L95.8231 26.846L100.299 26.3559L108 6.51741H100.865L96.3485 18.1683C95.4216 20.5318 94.2521 21.9966 92.6003 21.9966C90.9485 21.9966 90.6252 20.5699 91.5925 18.0867L96.1087 6.51741M58.0475 31.1671L67.643 6.52013H47.808L37.2856 33.5713L44.7443 32.7164L52.6448 12.4286H58.2092L50.5889 32.0248L58.0475 31.1698V31.1671ZM63.6523 20.1669C61.8388 25.5036 64.3367 30.3502 70.3834 30.3502C79.0115 30.3502 84.1716 19.3092 84.1716 13.1584C84.1716 8.55408 81.671 5.78497 76.7534 5.78497C71.4316 5.78497 68.2061 9.28924 66.0289 14.5851H72.884C73.8513 12.4668 74.8591 11.2034 76.1094 11.2034C77.1576 11.2034 77.5214 12.2626 77.5214 13.5259C77.5214 14.0133 77.4405 14.5851 77.3193 15.2359H73.1669L71.3534 19.881H75.8291C74.6597 22.5711 72.9675 24.9318 71.2726 24.9318C69.7421 24.9318 69.54 22.6909 70.4669 20.1669H63.655H63.6523ZM104.05 5.25675L105.542 1.42847H95.5024L94.0096 5.25675H104.047H104.05Z" fill="white"/>
</g>
<rect width="36" height="36" rx="18" fill="#F8604A"/>
<path d="M20.537 28.818H24.2975V7.21802H18.8276C13.3266 7.21802 10.4362 10.0462 10.4362 14.2108C10.4362 17.5363 12.0213 19.4943 14.8495 21.5144L9.93896 28.818H14.0103L19.4803 20.6442L17.5844 19.37C15.2846 17.816 14.1657 16.6039 14.1657 13.9933C14.1657 11.6934 15.7818 10.1395 18.8587 10.1395H20.537V28.818Z" fill="white" fill-opacity="0.98"/>
<defs>
<clipPath id="clip0_99188_14818">
<rect width="70.7143" height="32.1429" fill="white" transform="translate(37.2856 1.42847)"/>
</clipPath>
</defs>
</svg>
